<?xml version="1.0" encoding="UTF-8" standalone="no"?>
<!-- Created with Inkscape (http://www.inkscape.org/) -->

<svg
   width="300"
   height="300"
   viewBox="0 0 79.375 79.374999"
   version="1.1"
   id="svg1"
   xml:space="preserve"
   inkscape:version="1.3.2 (091e20e, 2023-11-25, custom)"
   sodipodi:docname="logo.svg"
   xmlns:inkscape="http://www.inkscape.org/namespaces/inkscape"
   xmlns:sodipodi="http://sodipodi.sourceforge.net/DTD/sodipodi-0.dtd"
   xmlns="http://www.w3.org/2000/svg"
   xmlns:svg="http://www.w3.org/2000/svg"
   xmlns:rdf="http://www.w3.org/1999/02/22-rdf-syntax-ns#"
   xmlns:cc="http://creativecommons.org/ns#"
   xmlns:dc="http://purl.org/dc/elements/1.1/"><title
     id="title7">todolist-logo</title><sodipodi:namedview
     id="namedview1"
     pagecolor="#ffffff"
     bordercolor="#000000"
     borderopacity="0.25"
     inkscape:showpageshadow="2"
     inkscape:pageopacity="0.0"
     inkscape:pagecheckerboard="0"
     inkscape:deskcolor="#d1d1d1"
     inkscape:document-units="px"
     inkscape:zoom="4"
     inkscape:cx="220"
     inkscape:cy="97.375"
     inkscape:window-width="2560"
     inkscape:window-height="1351"
     inkscape:window-x="-9"
     inkscape:window-y="-9"
     inkscape:window-maximized="1"
     inkscape:current-layer="layer3" /><defs
     id="defs1"><inkscape:path-effect
       effect="bspline"
       id="path-effect1"
       is_visible="true"
       lpeversion="1.3"
       weight="33.333333"
       steps="2"
       helper_size="0"
       apply_no_weight="true"
       apply_with_weight="true"
       only_selected="false"
       uniform="false" /><inkscape:path-effect
       effect="bspline"
       id="path-effect5"
       is_visible="true"
       lpeversion="1.3"
       weight="33.3"
       steps="2"
       helper_size="0"
       apply_no_weight="true"
       apply_with_weight="true"
       only_selected="false"
       uniform="false" /></defs><g
     inkscape:groupmode="layer"
     id="layer2"
     inkscape:label="bag"
     style="display:inline"><rect
       style="display:inline;stroke-width:3.5;stroke-dasharray:none"
       fill="#ffffff"
       stroke="#000000"
       id="rect2"
       width="30.319155"
       height="50.207378"
       x="38.193085"
       y="1.4118602"
       transform="matrix(0.88549294,0.46465281,-0.49726651,0.86759785,0,0)"
       ry="4.6493082"
       inkscape:label="bag" /><ellipse
       style="display:inline;fill:#000000;stroke:#000000;stroke-width:3.96785;stroke-dasharray:none"
       id="path3"
       cx="33.154724"
       cy="72.427834"
       rx="4.6031098"
       ry="4.5338445"
       inkscape:label="whell" /></g><g
     inkscape:groupmode="layer"
     id="layer4"
     inkscape:label="check"
     style="display:inline;opacity:1"><rect
       style="stroke-width:2;stroke-dasharray:none;stroke-opacity:1"
       fill="#ffffff"
       stroke="#ffffff"
       id="rect6"
       width="1.9095842"
       height="30.811413"
       x="37.177868"
       y="10.885234"
       ry="0.31400335"
       rx="0"
       transform="matrix(0.88004742,0.47488581,-0.49395263,0.86948882,0,0)"
       inkscape:label="space" /><path
       style="display:inline;opacity:1;stroke-width:1;stroke-dasharray:none;stroke-opacity:1"
       fill="#cc2424"
       stroke="#cc2424"
       d="m 14.314714,41.343358 c 2.49353,-2.755198 7.480593,-8.265595 10.031846,-11.063122 2.551252,-2.797527 2.666691,-2.882182 2.785982,-2.989928 0.11929,-0.107747 0.242424,-0.238575 0.365562,-0.303992 0.123139,-0.06542 0.246276,-0.06542 0.361717,-0.03848 0.115441,0.02694 0.223185,0.08081 0.319387,0.161619 0.0962,0.08081 0.180857,0.188553 0.223185,0.292451 0.04233,0.103898 0.04233,0.203944 -0.0038,0.33093 -0.04618,0.126986 -0.138528,0.280907 -2.324258,3.801934 -2.185731,3.521027 -6.464667,10.408883 -8.931267,14.353135 -2.466601,3.944253 -3.120756,4.944724 -3.578675,5.552717 -0.45792,0.607992 -0.719582,0.823479 -1.012036,0.965857 -0.292455,0.142378 -0.615683,0.211641 -0.892744,0.246273 -0.277062,0.03463 -0.50794,0.03463 -0.777306,-0.03848 -0.269365,-0.07311 -0.577203,-0.219337 -0.854264,-0.427133 C 9.7509327,51.979339 9.5046621,51.709981 8.2078489,50.128408 6.9110358,48.546834 4.5637769,45.653163 3.3324028,44.087009 2.1010288,42.520854 1.9855893,42.282279 1.9432612,42.016762 1.9009332,41.751244 1.931717,41.458798 2.0009825,41.131712 2.0702481,40.804626 2.177991,40.442917 2.3203704,40.185096 2.4627499,39.927275 2.6397561,39.773357 2.8667935,39.5848 c 0.2270374,-0.188556 0.5040909,-0.411738 0.746519,-0.561812 0.2424282,-0.150075 0.4502192,-0.227035 0.6734079,-0.246274 0.2231887,-0.01924 0.4617624,0.01924 0.7773059,0.115443 0.3155435,0.0962 0.7080362,0.250121 1.1120845,0.531032 0.4040483,0.28091 0.8196287,0.688795 1.5777038,1.392996 0.7580752,0.704202 1.8585936,1.704673 2.5012184,2.285729 0.642624,0.581056 0.827327,0.742671 1.012035,0.838872 0.184708,0.0962 0.369411,0.126984 0.461763,0.142375 0.09235,0.01539 0.09235,0.0154 2.585883,-2.739803 z"
       id="path5"
       inkscape:path-effect="#path-effect5"
       inkscape:original-d="m 11.821183,44.098556 c 4.987062,-5.510395 9.974124,-11.020793 14.961185,-16.531188 0.115443,-0.08466 0.230884,-0.169312 0.346324,-0.25397 0.12314,-0.130837 0.246274,-0.261665 0.369411,-0.392499 0.12314,0 0.246277,0 0.369414,0 0.107746,0.05387 0.21549,0.107743 0.323234,0.161618 0.08466,0.107746 0.169314,0.21549 0.25397,0.323233 0,0.100053 0,0.200099 0,0.300149 -0.09235,0.153924 -0.184705,0.307843 -0.277058,0.461764 -4.279107,6.888133 -8.558044,13.775989 -12.837066,20.663985 -0.65418,1.000508 -1.308334,2.00098 -1.962501,3.00147 -0.261672,0.215495 -0.523334,0.430982 -0.785,0.646472 -0.323242,0.06927 -0.646471,0.138528 -0.969707,0.207793 -0.230887,0 -0.461765,0 -0.692647,0 C 10.612892,52.541156 10.305055,52.394931 9.9972118,52.248707 9.7509321,51.97934 9.5046624,51.709981 9.2583877,51.440619 6.9110356,48.546834 4.5637772,45.653163 2.2164719,42.759436 2.1010283,42.520854 1.9855894,42.282279 1.8701482,42.043701 c 0.030785,-0.292457 0.061569,-0.584903 0.092353,-0.877353 0.1077473,-0.361722 0.2154903,-0.723431 0.3232354,-1.085149 0.1770135,-0.153924 0.3540199,-0.307842 0.5310297,-0.461764 0.2770645,-0.223191 0.5541179,-0.446373 0.8311769,-0.669559 0.2077984,-0.07696 0.4155887,-0.153922 0.6233829,-0.230884 0.2385833,0.03848 0.477157,0.07696 0.7157358,0.115443 0.392508,0.153924 0.7850005,0.307843 1.1775006,0.461764 0.4155969,0.4079 0.8311768,0.815785 1.2467653,1.223677 1.1005619,1.000511 2.2010798,2.000983 3.3016202,3.001473 0.184709,0.161621 0.369412,0.323236 0.554117,0.484854 0.18471,0.03079 0.369413,0.06157 0.554118,0.09235 z"
       transform="matrix(0.96148739,0,0,0.99055679,0.60224926,0.53939635)"
       inkscape:label="check" /></g><g
     inkscape:groupmode="layer"
     id="layer3"
     inkscape:label="holders"
     inkscape:highlight-color="#35350c"
     style="display:inline;opacity:1"><rect
       style="fill-opacity:1;stroke-width:0.8;stroke-dasharray:none;stroke-opacity:1"
       fill="#000000"
       stroke="#000000"
       id="rect7"
       width="2.547652"
       height="35.701347"
       x="67.099602"
       y="-33.016281"
       ry="0"
       transform="rotate(29.954858)"
       inkscape:transform-center-x="4.2094222"
       inkscape:transform-center-y="2.5992342"
       inkscape:label="holder-l" /><rect
       style="opacity:1;fill-opacity:1;stroke-width:0.8;stroke-dasharray:none;stroke-opacity:1"
       fill="#000000"
       stroke="#000000"
       id="rect7-7"
       width="2.6579192"
       height="33.008751"
       x="61.129219"
       y="-34.016384"
       ry="0"
       transform="rotate(30.835325)"
       inkscape:transform-center-x="4.2488663"
       inkscape:transform-center-y="2.5342445"
       inkscape:label="holder-r" /><path
       style="fill:#000000;stroke:#000000;stroke-width:0.26458333;stroke-dasharray:none"
       d="M 68.835763,2.7739908 C 68.780642,2.7285155 68.670399,2.6375654 68.594606,2.5479923 68.518814,2.4584193 68.477473,2.3702265 68.443022,2.2599817 68.408571,2.149737 68.381012,2.0174479 68.365849,1.896179 c -0.01516,-0.1212688 -0.01793,-0.2315081 -0.0069,-0.3624225 0.01102,-0.1309145 0.03582,-0.2824983 0.07303,-0.4065226 0.03721,-0.1240242 0.08682,-0.22048533 0.151584,-0.31143703 0.06477,-0.0909517 0.144692,-0.17638765 0.24529,-0.26871692 0.100598,-0.0923293 0.221864,-0.19154643 0.33762,-0.2645829 0.115757,-0.0730365 0.225996,-0.11988818 0.345887,-0.14331501 0.11989,-0.0234268 0.249425,-0.0234268 0.372071,-0.0248049 0.122646,-0.001378 0.238399,-0.004134 0.403766,0.0248056 0.165367,0.0289396 0.380336,0.0895718 1.463494,0.52366209 1.083158,0.43409027 3.03442,1.24160417 4.299465,1.79282227 1.265044,0.5512181 1.843809,0.8461126 2.200723,1.055576 0.356913,0.2094634 0.491957,0.3334835 0.584286,0.4492397 0.09233,0.1157562 0.141938,0.2232416 0.180523,0.3555346 0.03859,0.1322931 0.06614,0.2893864 0.08681,0.4533746 0.02067,0.1639882 0.03445,0.3348617 0.03169,0.4809347 -0.0028,0.146073 -0.02205,0.2673374 -0.05926,0.372069 -0.03721,0.1047317 -0.09233,0.1929258 -0.165365,0.3031695 -0.07304,0.1102437 -0.163986,0.2425337 -0.28939,0.355534 -0.125403,0.1130003 -0.285251,0.2067044 -0.443727,0.278363 -0.158476,0.071659 -0.31557,0.1212672 -0.472668,0.1502061 C 77.547679,6.7386072 77.390585,6.7468754 76.751187,6.50572 76.111789,6.2645646 74.990091,5.7739862 73.599636,5.1180285 72.20918,4.4620709 70.550055,3.6407765 69.720477,3.2301213 68.890898,2.8194661 68.890885,2.8194661 68.835763,2.7739908 Z"
       id="path1"
       inkscape:path-effect="#path-effect1"
       inkscape:original-d="m 68.890885,2.8194661 c -0.110244,-0.09095 -0.220486,-0.181901 -0.33073,-0.2728515 -0.04134,-0.088196 -0.08268,-0.1763889 -0.124023,-0.2645834 -0.02756,-0.1322943 -0.05512,-0.2645833 -0.08268,-0.396875 -0.0028,-0.1102452 -0.0055,-0.2204861 -0.0083,-0.3307291 0.02479,-0.1515873 0.04961,-0.3031684 0.07441,-0.4547526 0.04961,-0.096465 0.09922,-0.19292539 0.148828,-0.28938805 0.07993,-0.0854401 0.159853,-0.17087673 0.239778,-0.2563151 0.12127,-0.0992207 0.242536,-0.1984375 0.363803,-0.29765625 0.110246,-0.0468542 0.220485,-0.0937066 0.330729,-0.14055989 0.129537,0 0.259072,0 0.388606,0 0.115758,-0.002756 0.231511,-0.005512 0.347266,-0.008268 0.214979,0.0606349 0.429948,0.12126736 0.644922,0.18190104 1.951342,0.80754645 3.902604,1.61506075 5.853906,2.42259105 0.578787,0.2949062 1.157552,0.5898005 1.736328,0.8847005 0.135052,0.1240259 0.270095,0.2480469 0.405143,0.3720704 0.04961,0.107489 0.09922,0.2149739 0.148829,0.3224609 0.02756,0.1570995 0.05512,0.3141927 0.08268,0.471289 0.01378,0.1708801 0.02756,0.3417536 0.04134,0.5126302 -0.01929,0.12127 -0.03858,0.2425348 -0.05788,0.3638021 -0.05512,0.088196 -0.110243,0.176389 -0.165364,0.2645834 -0.09095,0.1322943 -0.181901,0.2645833 -0.272852,0.3968749 -0.159856,0.093709 -0.319704,0.1874131 -0.479557,0.2811198 -0.157099,0.049611 -0.314193,0.099219 -0.471289,0.1488282 -0.157099,0.00827 -0.314193,0.016536 -0.471289,0.024805 C 76.111795,6.2645517 74.990094,5.7739801 73.868372,5.2833984 72.20918,4.4620711 70.550055,3.640777 68.890898,2.8194661 Z"
       inkscape:label="tag" /></g><metadata
     id="metadata7"><rdf:RDF><cc:Work
         rdf:about=""><cc:license
           rdf:resource="http://creativecommons.org/licenses/by/4.0/" /><dc:title>todolist-logo</dc:title></cc:Work><cc:License
         rdf:about="http://creativecommons.org/licenses/by/4.0/"><cc:permits
           rdf:resource="http://creativecommons.org/ns#Reproduction" /><cc:permits
           rdf:resource="http://creativecommons.org/ns#Distribution" /><cc:requires
           rdf:resource="http://creativecommons.org/ns#Notice" /><cc:requires
           rdf:resource="http://creativecommons.org/ns#Attribution" /><cc:permits
           rdf:resource="http://creativecommons.org/ns#DerivativeWorks" /></cc:License></rdf:RDF></metadata></svg>
